<svg xmlns="http://www.w3.org/2000/svg" viewBox="0 0 532 397" width="532" height="397" style="font-family:monospace">
<rect width="532" height="397" fill="#0c1018" rx="8"/>
<text x="126.0" y="22" fill="#ff1744" font-size="11" text-anchor="middle" font-weight="bold">Emotion</text>
<text x="198.0" y="22" fill="#2979ff" font-size="11" text-anchor="middle" font-weight="bold">Formal</text>
<text x="270.0" y="22" fill="#ffab00" font-size="11" text-anchor="middle" font-weight="bold">Creative</text>
<text x="342.0" y="22" fill="#00e676" font-size="11" text-anchor="middle" font-weight="bold">Confid</text>
<text x="414.0" y="22" fill="#d500f9" font-size="11" text-anchor="middle" font-weight="bold">Empathy</text>
<text x="486.0" y="22" fill="#888" font-size="11" text-anchor="middle" font-weight="bold">Avg</text>
<text x="84" y="55.0" fill="#d0dae8" font-size="10" text-anchor="end">Q2.5 Base</text>
<rect x="91" y="36" width="70" height="30" fill="#d50000" rx="3"/>
<text x="126.0" y="55.0" fill="#fff" font-size="10" text-anchor="middle">0.309</text>
<rect x="163" y="36" width="70" height="30" fill="#d50000" rx="3"/>
<text x="198.0" y="55.0" fill="#fff" font-size="10" text-anchor="middle">0.388</text>
<rect x="235" y="36" width="70" height="30" fill="#d50000" rx="3"/>
<text x="270.0" y="55.0" fill="#fff" font-size="10" text-anchor="middle">0.356</text>
<rect x="307" y="36" width="70" height="30" fill="#d50000" rx="3"/>
<text x="342.0" y="55.0" fill="#fff" font-size="10" text-anchor="middle">0.318</text>
<rect x="379" y="36" width="70" height="30" fill="#d50000" rx="3"/>
<text x="414.0" y="55.0" fill="#fff" font-size="10" text-anchor="middle">0.353</text>
<rect x="451" y="36" width="70" height="30" fill="#d50000" rx="3"/>
<text x="486.0" y="55.0" fill="#fff" font-size="10" text-anchor="middle" font-weight="bold">0.345</text>
<text x="84" y="87.0" fill="#d0dae8" font-size="10" text-anchor="end">EN Query</text>
<rect x="91" y="68" width="70" height="30" fill="#d50000" rx="3"/>
<text x="126.0" y="87.0" fill="#fff" font-size="10" text-anchor="middle">0.232</text>
<rect x="163" y="68" width="70" height="30" fill="#d50000" rx="3"/>
<text x="198.0" y="87.0" fill="#fff" font-size="10" text-anchor="middle">0.251</text>
<rect x="235" y="68" width="70" height="30" fill="#d50000" rx="3"/>
<text x="270.0" y="87.0" fill="#fff" font-size="10" text-anchor="middle">0.209</text>
<rect x="307" y="68" width="70" height="30" fill="#d50000" rx="3"/>
<text x="342.0" y="87.0" fill="#fff" font-size="10" text-anchor="middle">0.210</text>
<rect x="379" y="68" width="70" height="30" fill="#d50000" rx="3"/>
<text x="414.0" y="87.0" fill="#fff" font-size="10" text-anchor="middle">0.221</text>
<rect x="451" y="68" width="70" height="30" fill="#d50000" rx="3"/>
<text x="486.0" y="87.0" fill="#fff" font-size="10" text-anchor="middle" font-weight="bold">0.224</text>
<text x="84" y="119.0" fill="#d0dae8" font-size="10" text-anchor="end">Mixed</text>
<rect x="91" y="100" width="70" height="30" fill="#ff3d00" rx="3"/>
<text x="126.0" y="119.0" fill="#fff" font-size="10" text-anchor="middle">0.135</text>
<rect x="163" y="100" width="70" height="30" fill="#ff3d00" rx="3"/>
<text x="198.0" y="119.0" fill="#fff" font-size="10" text-anchor="middle">0.128</text>
<rect x="235" y="100" width="70" height="30" fill="#ff3d00" rx="3"/>
<text x="270.0" y="119.0" fill="#fff" font-size="10" text-anchor="middle">0.139</text>
<rect x="307" y="100" width="70" height="30" fill="#ff3d00" rx="3"/>
<text x="342.0" y="119.0" fill="#fff" font-size="10" text-anchor="middle">0.124</text>
<rect x="379" y="100" width="70" height="30" fill="#ff3d00" rx="3"/>
<text x="414.0" y="119.0" fill="#fff" font-size="10" text-anchor="middle">0.141</text>
<rect x="451" y="100" width="70" height="30" fill="#ff3d00" rx="3"/>
<text x="486.0" y="119.0" fill="#fff" font-size="10" text-anchor="middle" font-weight="bold">0.133</text>
<text x="84" y="151.0" fill="#d0dae8" font-size="10" text-anchor="end">T=0.6</text>
<rect x="91" y="132" width="70" height="30" fill="#ffd600" rx="3"/>
<text x="126.0" y="151.0" fill="#fff" font-size="10" text-anchor="middle">0.073</text>
<rect x="163" y="132" width="70" height="30" fill="#ff9100" rx="3"/>
<text x="198.0" y="151.0" fill="#fff" font-size="10" text-anchor="middle">0.102</text>
<rect x="235" y="132" width="70" height="30" fill="#ffd600" rx="3"/>
<text x="270.0" y="151.0" fill="#fff" font-size="10" text-anchor="middle">0.076</text>
<rect x="307" y="132" width="70" height="30" fill="#ff9100" rx="3"/>
<text x="342.0" y="151.0" fill="#fff" font-size="10" text-anchor="middle">0.081</text>
<rect x="379" y="132" width="70" height="30" fill="#ff9100" rx="3"/>
<text x="414.0" y="151.0" fill="#fff" font-size="10" text-anchor="middle">0.092</text>
<rect x="451" y="132" width="70" height="30" fill="#ff9100" rx="3"/>
<text x="486.0" y="151.0" fill="#fff" font-size="10" text-anchor="middle" font-weight="bold">0.085</text>
<text x="84" y="183.0" fill="#d0dae8" font-size="10" text-anchor="end">Q3-8B BF16</text>
<rect x="91" y="164" width="70" height="30" fill="#ffd600" rx="3"/>
<text x="126.0" y="183.0" fill="#fff" font-size="10" text-anchor="middle">0.075</text>
<rect x="163" y="164" width="70" height="30" fill="#ff9100" rx="3"/>
<text x="198.0" y="183.0" fill="#fff" font-size="10" text-anchor="middle">0.089</text>
<rect x="235" y="164" width="70" height="30" fill="#ffd600" rx="3"/>
<text x="270.0" y="183.0" fill="#fff" font-size="10" text-anchor="middle">0.074</text>
<rect x="307" y="164" width="70" height="30" fill="#ffd600" rx="3"/>
<text x="342.0" y="183.0" fill="#fff" font-size="10" text-anchor="middle">0.075</text>
<rect x="379" y="164" width="70" height="30" fill="#ffd600" rx="3"/>
<text x="414.0" y="183.0" fill="#fff" font-size="10" text-anchor="middle">0.078</text>
<rect x="451" y="164" width="70" height="30" fill="#ffd600" rx="3"/>
<text x="486.0" y="183.0" fill="#fff" font-size="10" text-anchor="middle" font-weight="bold">0.078</text>
<text x="84" y="215.0" fill="#d0dae8" font-size="10" text-anchor="end">Think OFF</text>
<rect x="91" y="196" width="70" height="30" fill="#ffd600" rx="3"/>
<text x="126.0" y="215.0" fill="#fff" font-size="10" text-anchor="middle">0.075</text>
<rect x="163" y="196" width="70" height="30" fill="#ff9100" rx="3"/>
<text x="198.0" y="215.0" fill="#fff" font-size="10" text-anchor="middle">0.089</text>
<rect x="235" y="196" width="70" height="30" fill="#ffd600" rx="3"/>
<text x="270.0" y="215.0" fill="#fff" font-size="10" text-anchor="middle">0.074</text>
<rect x="307" y="196" width="70" height="30" fill="#ffd600" rx="3"/>
<text x="342.0" y="215.0" fill="#fff" font-size="10" text-anchor="middle">0.075</text>
<rect x="379" y="196" width="70" height="30" fill="#ffd600" rx="3"/>
<text x="414.0" y="215.0" fill="#fff" font-size="10" text-anchor="middle">0.078</text>
<rect x="451" y="196" width="70" height="30" fill="#ffd600" rx="3"/>
<text x="486.0" y="215.0" fill="#fff" font-size="10" text-anchor="middle" font-weight="bold">0.078</text>
<text x="84" y="247.0" fill="#d0dae8" font-size="10" text-anchor="end">Q3-8B AWQ</text>
<rect x="91" y="228" width="70" height="30" fill="#ff9100" rx="3"/>
<text x="126.0" y="247.0" fill="#fff" font-size="10" text-anchor="middle">0.088</text>
<rect x="163" y="228" width="70" height="30" fill="#ffd600" rx="3"/>
<text x="198.0" y="247.0" fill="#fff" font-size="10" text-anchor="middle">0.069</text>
<rect x="235" y="228" width="70" height="30" fill="#ffd600" rx="3"/>
<text x="270.0" y="247.0" fill="#fff" font-size="10" text-anchor="middle">0.069</text>
<rect x="307" y="228" width="70" height="30" fill="#ff9100" rx="3"/>
<text x="342.0" y="247.0" fill="#fff" font-size="10" text-anchor="middle">0.080</text>
<rect x="379" y="228" width="70" height="30" fill="#ff9100" rx="3"/>
<text x="414.0" y="247.0" fill="#fff" font-size="10" text-anchor="middle">0.081</text>
<rect x="451" y="228" width="70" height="30" fill="#ffd600" rx="3"/>
<text x="486.0" y="247.0" fill="#fff" font-size="10" text-anchor="middle" font-weight="bold">0.078</text>
<text x="84" y="279.0" fill="#d0dae8" font-size="10" text-anchor="end">T=1.5</text>
<rect x="91" y="260" width="70" height="30" fill="#ff9100" rx="3"/>
<text x="126.0" y="279.0" fill="#fff" font-size="10" text-anchor="middle">0.086</text>
<rect x="163" y="260" width="70" height="30" fill="#ffd600" rx="3"/>
<text x="198.0" y="279.0" fill="#fff" font-size="10" text-anchor="middle">0.063</text>
<rect x="235" y="260" width="70" height="30" fill="#ffd600" rx="3"/>
<text x="270.0" y="279.0" fill="#fff" font-size="10" text-anchor="middle">0.076</text>
<rect x="307" y="260" width="70" height="30" fill="#ffd600" rx="3"/>
<text x="342.0" y="279.0" fill="#fff" font-size="10" text-anchor="middle">0.067</text>
<rect x="379" y="260" width="70" height="30" fill="#ff9100" rx="3"/>
<text x="414.0" y="279.0" fill="#fff" font-size="10" text-anchor="middle">0.082</text>
<rect x="451" y="260" width="70" height="30" fill="#ffd600" rx="3"/>
<text x="486.0" y="279.0" fill="#fff" font-size="10" text-anchor="middle" font-weight="bold">0.075</text>
<text x="84" y="311.0" fill="#d0dae8" font-size="10" text-anchor="end">Q3-14B</text>
<rect x="91" y="292" width="70" height="30" fill="#ffd600" rx="3"/>
<text x="126.0" y="311.0" fill="#fff" font-size="10" text-anchor="middle">0.068</text>
<rect x="163" y="292" width="70" height="30" fill="#ffd600" rx="3"/>
<text x="198.0" y="311.0" fill="#fff" font-size="10" text-anchor="middle">0.067</text>
<rect x="235" y="292" width="70" height="30" fill="#ffd600" rx="3"/>
<text x="270.0" y="311.0" fill="#fff" font-size="10" text-anchor="middle">0.066</text>
<rect x="307" y="292" width="70" height="30" fill="#ffd600" rx="3"/>
<text x="342.0" y="311.0" fill="#fff" font-size="10" text-anchor="middle">0.068</text>
<rect x="379" y="292" width="70" height="30" fill="#ffd600" rx="3"/>
<text x="414.0" y="311.0" fill="#fff" font-size="10" text-anchor="middle">0.066</text>
<rect x="451" y="292" width="70" height="30" fill="#ffd600" rx="3"/>
<text x="486.0" y="311.0" fill="#fff" font-size="10" text-anchor="middle" font-weight="bold">0.067</text>
<text x="84" y="343.0" fill="#d0dae8" font-size="10" text-anchor="end">Q2.5 Inst</text>
<rect x="91" y="324" width="70" height="30" fill="#64dd17" rx="3"/>
<text x="126.0" y="343.0" fill="#000" font-size="10" text-anchor="middle">0.031</text>
<rect x="163" y="324" width="70" height="30" fill="#64dd17" rx="3"/>
<text x="198.0" y="343.0" fill="#000" font-size="10" text-anchor="middle">0.035</text>
<rect x="235" y="324" width="70" height="30" fill="#ffd600" rx="3"/>
<text x="270.0" y="343.0" fill="#fff" font-size="10" text-anchor="middle">0.060</text>
<rect x="307" y="324" width="70" height="30" fill="#64dd17" rx="3"/>
<text x="342.0" y="343.0" fill="#000" font-size="10" text-anchor="middle">0.024</text>
<rect x="379" y="324" width="70" height="30" fill="#64dd17" rx="3"/>
<text x="414.0" y="343.0" fill="#000" font-size="10" text-anchor="middle">0.022</text>
<rect x="451" y="324" width="70" height="30" fill="#64dd17" rx="3"/>
<text x="486.0" y="343.0" fill="#000" font-size="10" text-anchor="middle" font-weight="bold">0.034</text>
<text x="84" y="375.0" fill="#d0dae8" font-size="10" text-anchor="end">Think ON</text>
<rect x="91" y="356" width="70" height="30" fill="#00c853" rx="3"/>
<text x="126.0" y="375.0" fill="#000" font-size="10" text-anchor="middle">0.000</text>
<rect x="163" y="356" width="70" height="30" fill="#00c853" rx="3"/>
<text x="198.0" y="375.0" fill="#000" font-size="10" text-anchor="middle">0.000</text>
<rect x="235" y="356" width="70" height="30" fill="#00c853" rx="3"/>
<text x="270.0" y="375.0" fill="#000" font-size="10" text-anchor="middle">0.000</text>
<rect x="307" y="356" width="70" height="30" fill="#00c853" rx="3"/>
<text x="342.0" y="375.0" fill="#000" font-size="10" text-anchor="middle">0.000</text>
<rect x="379" y="356" width="70" height="30" fill="#00c853" rx="3"/>
<text x="414.0" y="375.0" fill="#000" font-size="10" text-anchor="middle">0.010</text>
<rect x="451" y="356" width="70" height="30" fill="#00c853" rx="3"/>
<text x="486.0" y="375.0" fill="#000" font-size="10" text-anchor="middle" font-weight="bold">0.002</text>
</svg>