<svg xmlns="http://www.w3.org/2000/svg" viewBox="0 0 405 425" width="405" height="425" style="font-family:monospace">
<rect width="405" height="425" fill="#0c1018" rx="8"/>
<text x="202.5" y="20" fill="#d0dae8" font-size="12" text-anchor="middle" font-weight="bold">creativity x formality</text>
<rect x="55" y="30" width="29" height="29" fill="#64dd17" rx="2"/>
<rect x="85" y="30" width="29" height="29" fill="#64dd17" rx="2"/>
<rect x="115" y="30" width="29" height="29" fill="#00c853" rx="2"/>
<rect x="145" y="30" width="29" height="29" fill="#00c853" rx="2"/>
<rect x="175" y="30" width="29" height="29" fill="#64dd17" rx="2"/>
<rect x="205" y="30" width="29" height="29" fill="#64dd17" rx="2"/>
<rect x="235" y="30" width="29" height="29" fill="#64dd17" rx="2"/>
<rect x="265" y="30" width="29" height="29" fill="#64dd17" rx="2"/>
<rect x="295" y="30" width="29" height="29" fill="#64dd17" rx="2"/>
<rect x="325" y="30" width="29" height="29" fill="#64dd17" rx="2"/>
<rect x="355" y="30" width="29" height="29" fill="#64dd17" rx="2"/>
<rect x="55" y="60" width="29" height="29" fill="#64dd17" rx="2"/>
<rect x="85" y="60" width="29" height="29" fill="#64dd17" rx="2"/>
<rect x="115" y="60" width="29" height="29" fill="#64dd17" rx="2"/>
<rect x="145" y="60" width="29" height="29" fill="#ffd600" rx="2"/>
<rect x="175" y="60" width="29" height="29" fill="#ffd600" rx="2"/>
<rect x="205" y="60" width="29" height="29" fill="#ffd600" rx="2"/>
<rect x="235" y="60" width="29" height="29" fill="#64dd17" rx="2"/>
<rect x="265" y="60" width="29" height="29" fill="#ffd600" rx="2"/>
<rect x="295" y="60" width="29" height="29" fill="#64dd17" rx="2"/>
<rect x="325" y="60" width="29" height="29" fill="#ff9100" rx="2"/>
<text x="340.0" y="78.0" fill="#fff" font-size="7" text-anchor="middle">0.10</text>
<rect x="355" y="60" width="29" height="29" fill="#ffd600" rx="2"/>
<rect x="55" y="90" width="29" height="29" fill="#64dd17" rx="2"/>
<rect x="85" y="90" width="29" height="29" fill="#64dd17" rx="2"/>
<rect x="115" y="90" width="29" height="29" fill="#64dd17" rx="2"/>
<rect x="145" y="90" width="29" height="29" fill="#64dd17" rx="2"/>
<rect x="175" y="90" width="29" height="29" fill="#ffd600" rx="2"/>
<rect x="205" y="90" width="29" height="29" fill="#ffd600" rx="2"/>
<rect x="235" y="90" width="29" height="29" fill="#ffd600" rx="2"/>
<rect x="265" y="90" width="29" height="29" fill="#ffd600" rx="2"/>
<rect x="295" y="90" width="29" height="29" fill="#ff9100" rx="2"/>
<text x="310.0" y="108.0" fill="#fff" font-size="7" text-anchor="middle">0.10</text>
<rect x="325" y="90" width="29" height="29" fill="#ffd600" rx="2"/>
<rect x="355" y="90" width="29" height="29" fill="#ff9100" rx="2"/>
<text x="370.0" y="108.0" fill="#fff" font-size="7" text-anchor="middle">0.10</text>
<rect x="55" y="120" width="29" height="29" fill="#ffd600" rx="2"/>
<rect x="85" y="120" width="29" height="29" fill="#ffd600" rx="2"/>
<rect x="115" y="120" width="29" height="29" fill="#ffd600" rx="2"/>
<rect x="145" y="120" width="29" height="29" fill="#64dd17" rx="2"/>
<rect x="175" y="120" width="29" height="29" fill="#64dd17" rx="2"/>
<rect x="205" y="120" width="29" height="29" fill="#ffd600" rx="2"/>
<rect x="235" y="120" width="29" height="29" fill="#64dd17" rx="2"/>
<rect x="265" y="120" width="29" height="29" fill="#ffd600" rx="2"/>
<rect x="295" y="120" width="29" height="29" fill="#ffd600" rx="2"/>
<rect x="325" y="120" width="29" height="29" fill="#ffd600" rx="2"/>
<rect x="355" y="120" width="29" height="29" fill="#ffd600" rx="2"/>
<rect x="55" y="150" width="29" height="29" fill="#ffd600" rx="2"/>
<rect x="85" y="150" width="29" height="29" fill="#64dd17" rx="2"/>
<rect x="115" y="150" width="29" height="29" fill="#ffd600" rx="2"/>
<rect x="145" y="150" width="29" height="29" fill="#64dd17" rx="2"/>
<rect x="175" y="150" width="29" height="29" fill="#ff9100" rx="2"/>
<text x="190.0" y="168.0" fill="#fff" font-size="7" text-anchor="middle">0.08</text>
<rect x="205" y="150" width="29" height="29" fill="#ffd600" rx="2"/>
<rect x="235" y="150" width="29" height="29" fill="#ffd600" rx="2"/>
<rect x="265" y="150" width="29" height="29" fill="#ffd600" rx="2"/>
<rect x="295" y="150" width="29" height="29" fill="#ffd600" rx="2"/>
<rect x="325" y="150" width="29" height="29" fill="#ffd600" rx="2"/>
<rect x="355" y="150" width="29" height="29" fill="#ffd600" rx="2"/>
<rect x="55" y="180" width="29" height="29" fill="#ff9100" rx="2"/>
<text x="70.0" y="198.0" fill="#fff" font-size="7" text-anchor="middle">0.09</text>
<rect x="85" y="180" width="29" height="29" fill="#ff9100" rx="2"/>
<text x="100.0" y="198.0" fill="#fff" font-size="7" text-anchor="middle">0.09</text>
<rect x="115" y="180" width="29" height="29" fill="#ffd600" rx="2"/>
<rect x="145" y="180" width="29" height="29" fill="#64dd17" rx="2"/>
<rect x="175" y="180" width="29" height="29" fill="#64dd17" rx="2"/>
<rect x="205" y="180" width="29" height="29" fill="#ffd600" rx="2"/>
<rect x="235" y="180" width="29" height="29" fill="#ffd600" rx="2"/>
<rect x="265" y="180" width="29" height="29" fill="#ffd600" rx="2"/>
<rect x="295" y="180" width="29" height="29" fill="#ffd600" rx="2"/>
<rect x="325" y="180" width="29" height="29" fill="#ff9100" rx="2"/>
<text x="340.0" y="198.0" fill="#fff" font-size="7" text-anchor="middle">0.08</text>
<rect x="355" y="180" width="29" height="29" fill="#64dd17" rx="2"/>
<rect x="55" y="210" width="29" height="29" fill="#ffd600" rx="2"/>
<rect x="85" y="210" width="29" height="29" fill="#ffd600" rx="2"/>
<rect x="115" y="210" width="29" height="29" fill="#64dd17" rx="2"/>
<rect x="145" y="210" width="29" height="29" fill="#64dd17" rx="2"/>
<rect x="175" y="210" width="29" height="29" fill="#ffd600" rx="2"/>
<rect x="205" y="210" width="29" height="29" fill="#ffd600" rx="2"/>
<rect x="235" y="210" width="29" height="29" fill="#ffd600" rx="2"/>
<rect x="265" y="210" width="29" height="29" fill="#ffd600" rx="2"/>
<rect x="295" y="210" width="29" height="29" fill="#ffd600" rx="2"/>
<rect x="325" y="210" width="29" height="29" fill="#ffd600" rx="2"/>
<rect x="355" y="210" width="29" height="29" fill="#64dd17" rx="2"/>
<rect x="55" y="240" width="29" height="29" fill="#ffd600" rx="2"/>
<rect x="85" y="240" width="29" height="29" fill="#64dd17" rx="2"/>
<rect x="115" y="240" width="29" height="29" fill="#64dd17" rx="2"/>
<rect x="145" y="240" width="29" height="29" fill="#64dd17" rx="2"/>
<rect x="175" y="240" width="29" height="29" fill="#ffd600" rx="2"/>
<rect x="205" y="240" width="29" height="29" fill="#00c853" rx="2"/>
<rect x="235" y="240" width="29" height="29" fill="#64dd17" rx="2"/>
<rect x="265" y="240" width="29" height="29" fill="#ffd600" rx="2"/>
<rect x="295" y="240" width="29" height="29" fill="#ffd600" rx="2"/>
<rect x="325" y="240" width="29" height="29" fill="#ffd600" rx="2"/>
<rect x="355" y="240" width="29" height="29" fill="#64dd17" rx="2"/>
<rect x="55" y="270" width="29" height="29" fill="#ffd600" rx="2"/>
<rect x="85" y="270" width="29" height="29" fill="#64dd17" rx="2"/>
<rect x="115" y="270" width="29" height="29" fill="#64dd17" rx="2"/>
<rect x="145" y="270" width="29" height="29" fill="#64dd17" rx="2"/>
<rect x="175" y="270" width="29" height="29" fill="#64dd17" rx="2"/>
<rect x="205" y="270" width="29" height="29" fill="#ffd600" rx="2"/>
<rect x="235" y="270" width="29" height="29" fill="#64dd17" rx="2"/>
<rect x="265" y="270" width="29" height="29" fill="#ffd600" rx="2"/>
<rect x="295" y="270" width="29" height="29" fill="#ffd600" rx="2"/>
<rect x="325" y="270" width="29" height="29" fill="#ffd600" rx="2"/>
<rect x="355" y="270" width="29" height="29" fill="#64dd17" rx="2"/>
<rect x="55" y="300" width="29" height="29" fill="#ffd600" rx="2"/>
<rect x="85" y="300" width="29" height="29" fill="#ffd600" rx="2"/>
<rect x="115" y="300" width="29" height="29" fill="#ff9100" rx="2"/>
<text x="130.0" y="318.0" fill="#fff" font-size="7" text-anchor="middle">0.08</text>
<rect x="145" y="300" width="29" height="29" fill="#64dd17" rx="2"/>
<rect x="175" y="300" width="29" height="29" fill="#ffd600" rx="2"/>
<rect x="205" y="300" width="29" height="29" fill="#64dd17" rx="2"/>
<rect x="235" y="300" width="29" height="29" fill="#ffd600" rx="2"/>
<rect x="265" y="300" width="29" height="29" fill="#ffd600" rx="2"/>
<rect x="295" y="300" width="29" height="29" fill="#ff9100" rx="2"/>
<text x="310.0" y="318.0" fill="#fff" font-size="7" text-anchor="middle">0.08</text>
<rect x="325" y="300" width="29" height="29" fill="#ff9100" rx="2"/>
<text x="340.0" y="318.0" fill="#fff" font-size="7" text-anchor="middle">0.08</text>
<rect x="355" y="300" width="29" height="29" fill="#ff9100" rx="2"/>
<text x="370.0" y="318.0" fill="#fff" font-size="7" text-anchor="middle">0.11</text>
<rect x="55" y="330" width="29" height="29" fill="#ffd600" rx="2"/>
<rect x="85" y="330" width="29" height="29" fill="#64dd17" rx="2"/>
<rect x="115" y="330" width="29" height="29" fill="#64dd17" rx="2"/>
<rect x="145" y="330" width="29" height="29" fill="#64dd17" rx="2"/>
<rect x="175" y="330" width="29" height="29" fill="#64dd17" rx="2"/>
<rect x="205" y="330" width="29" height="29" fill="#64dd17" rx="2"/>
<rect x="235" y="330" width="29" height="29" fill="#64dd17" rx="2"/>
<rect x="265" y="330" width="29" height="29" fill="#ffd600" rx="2"/>
<rect x="295" y="330" width="29" height="29" fill="#ffd600" rx="2"/>
<rect x="325" y="330" width="29" height="29" fill="#ff9100" rx="2"/>
<text x="340.0" y="348.0" fill="#fff" font-size="7" text-anchor="middle">0.10</text>
<rect x="355" y="330" width="29" height="29" fill="#ff9100" rx="2"/>
<text x="370.0" y="348.0" fill="#fff" font-size="7" text-anchor="middle">0.11</text>
<text x="70.0" y="372" fill="#888" font-size="8" text-anchor="middle">-3.0</text>
<text x="130.0" y="372" fill="#888" font-size="8" text-anchor="middle">-1.8</text>
<text x="190.0" y="372" fill="#888" font-size="8" text-anchor="middle">-0.6</text>
<text x="250.0" y="372" fill="#888" font-size="8" text-anchor="middle">0.6</text>
<text x="310.0" y="372" fill="#888" font-size="8" text-anchor="middle">1.8</text>
<text x="370.0" y="372" fill="#888" font-size="8" text-anchor="middle">3.0</text>
<text x="50" y="48.0" fill="#888" font-size="8" text-anchor="end">-3.0</text>
<text x="50" y="108.0" fill="#888" font-size="8" text-anchor="end">-1.8</text>
<text x="50" y="168.0" fill="#888" font-size="8" text-anchor="end">-0.6</text>
<text x="50" y="228.0" fill="#888" font-size="8" text-anchor="end">0.6</text>
<text x="50" y="288.0" fill="#888" font-size="8" text-anchor="end">1.8</text>
<text x="50" y="348.0" fill="#888" font-size="8" text-anchor="end">3.0</text>
<text x="202.5" y="420" fill="#888" font-size="9" text-anchor="middle">formality coeff</text>
<text x="10" y="195.0" fill="#888" font-size="9" text-anchor="middle" transform="rotate(-90,10,195.0)">creativity coeff</text>
</svg>