<svg xmlns="http://www.w3.org/2000/svg" viewBox="0 0 400 380" width="400" height="380" style="font-family:monospace">
<rect width="400" height="380" fill="#0c1018" rx="8"/>
<text x="200" y="25" fill="#d0dae8" font-size="14" text-anchor="middle" font-weight="bold">Base vs Instruct (Qwen2.5-7B)</text>
<polygon points="200.0,172.0 226.6,191.3 216.5,222.7 183.5,222.7 173.4,191.3" fill="none" stroke="#1a2435" stroke-width="1"/>
<polygon points="200.0,144.0 253.3,182.7 232.9,245.3 167.1,245.3 146.7,182.7" fill="none" stroke="#1a2435" stroke-width="1"/>
<polygon points="200.0,116.0 279.9,174.0 249.4,268.0 150.6,268.0 120.1,174.0" fill="none" stroke="#1a2435" stroke-width="1"/>
<polygon points="200.0,88.0 306.5,165.4 265.8,290.6 134.2,290.6 93.5,165.4" fill="none" stroke="#1a2435" stroke-width="1"/>
<polygon points="200.0,60.0 333.1,156.7 282.3,313.3 117.7,313.3 66.9,156.7" fill="none" stroke="#1a2435" stroke-width="1"/>
<line x1="200" y1="200" x2="200.0" y2="60.0" stroke="#1a2435"/>
<text x="200.0" y="35.0" fill="#ff1744" font-size="10" text-anchor="middle">Emotion</text>
<line x1="200" y1="200" x2="333.1" y2="156.7" stroke="#1a2435"/>
<text x="356.9" y="149.0" fill="#2979ff" font-size="10" text-anchor="middle">Formal</text>
<line x1="200" y1="200" x2="282.3" y2="313.3" stroke="#1a2435"/>
<text x="297.0" y="333.5" fill="#ffab00" font-size="10" text-anchor="middle">Creative</text>
<line x1="200" y1="200" x2="117.7" y2="313.3" stroke="#1a2435"/>
<text x="103.0" y="333.5" fill="#00e676" font-size="10" text-anchor="middle">Confid</text>
<line x1="200" y1="200" x2="66.9" y2="156.7" stroke="#1a2435"/>
<text x="43.1" y="149.0" fill="#d500f9" font-size="10" text-anchor="middle">Empathy</text>
<polygon points="200.0,88.5 333.1,156.7 275.6,304.1 132.5,292.9 78.6,160.6" fill="#d500f920" stroke="#d500f9" stroke-width="2"/>
<circle cx="200.0" cy="88.5" r="4" fill="#d500f9"/>
<circle cx="333.1" cy="156.7" r="4" fill="#d500f9"/>
<circle cx="275.6" cy="304.1" r="4" fill="#d500f9"/>
<circle cx="132.5" cy="292.9" r="4" fill="#d500f9"/>
<circle cx="78.6" cy="160.6" r="4" fill="#d500f9"/>
<polygon points="200.0,188.9 212.1,196.1 212.8,217.6 195.0,206.9 192.6,197.6" fill="#e040fb20" stroke="#e040fb" stroke-width="2"/>
<circle cx="200.0" cy="188.9" r="4" fill="#e040fb"/>
<circle cx="212.1" cy="196.1" r="4" fill="#e040fb"/>
<circle cx="212.8" cy="217.6" r="4" fill="#e040fb"/>
<circle cx="195.0" cy="206.9" r="4" fill="#e040fb"/>
<circle cx="192.6" cy="197.6" r="4" fill="#e040fb"/>
<rect x="60" y="355" width="12" height="12" fill="#d500f9" rx="2"/>
<text x="76" y="365" fill="#d0dae8" font-size="10">Base</text>
<rect x="220" y="355" width="12" height="12" fill="#e040fb" rx="2"/>
<text x="236" y="365" fill="#d0dae8" font-size="10">Instruct</text>
</svg>